 <svg  version="1.0" xmlns="http://www.w3.org/2000/svg"  width="300.000000pt" height="269.000000pt" viewBox="0 0 300.000000 269.000000"  preserveAspectRatio="xMidYMid meet">  <g transform="translate(0.000000,269.000000) scale(0.100000,-0.100000)" fill="#fafafa" stroke="none"> <path d="M1282 2595 c-318 -49 -594 -184 -809 -397 -213 -209 -332 -462 -358 -759 -13 -153 34 -402 107 -556 167 -358 537 -633 978 -729 120 -26 488 -27 605 -1 274 60 495 171 682 342 286 261 435 667 380 1031 -42 269 -161 499 -356 687 -111 106 -195 166 -338 238 -126 64 -221 97 -370 129 -129 28 -389 35 -521 15z m511 -45 c259 -51 533 -185 711 -350 66 -61 158 -177 200 -253 61 -111 50 -115 -22 -7 -126 190 -265 318 -462 428 -478 264 -1070 248 -1525 -44 -32 -20 -55 -32 -51 -26 11 19 112 80 212 130 143 72 336 127 509 146 92 10 323 -3 428 -24z m-33 -34 c41 -9 84 -20 95 -25 37 -15 91 -31 108 -31 9 0 17 -3 17 -7 0 -5 21 -16 48 -27 264 -104 454 -251 592 -457 111 -167 171 -327 192 -516 38 -330 -113 -700 -377 -925 -220 -187 -481 -302 -769 -338 -198 -25 -472 3 -648 66 -438 158 -725 491 -803 932 -13 74 -14 305 -2 362 3 14 8 41 11 61 12 77 55 198 107 302 11 20 17 37 14 37 -4 0 -28 -46 -55 -102 -96 -201 -133 -399 -112 -595 28 -253 113 -454 277 -652 69 -84 74 -92 36 -62 -72 57 -167 179 -228 291 -46 87 -62 134 -89 269 -23 112 -25 143 -21 286 3 123 10 178 27 240 64 233 172 414 345 575 l69 65 -79 -87 c-44 -47 -88 -101 -98 -120 -17 -31 -17 -31 14 7 61 75 178 183 251 233 178 120 357 187 628 236 59 10 378 -2 450 -18z m1020 -1539 c0 -15 -47 -124 -81 -185 -57 -105 -111 -172 -217 -274 -244 -231 -579 -370 -887 -367 l-100 1 121 13 c498 55 901 314 1104 711 22 43 40 84 40 91 0 7 5 13 10 13 6 0 10 -1 10 -3z"/> <path d="M1360 2504 c-309 -29 -653 -187 -829 -380 -58 -64 -114 -144 -126 -184 -7 -22 -6 -23 9 -8 9 9 16 21 16 27 0 5 8 15 18 20 9 6 14 11 10 11 -7 0 9 18 115 128 47 49 73 69 84 65 13 -5 10 -11 -15 -35 -18 -15 -32 -32 -32 -36 0 -5 -9 -17 -20 -27 -11 -10 -20 -22 -20 -27 0 -5 -10 -24 -23 -41 -70 -99 -119 -231 -132 -351 -6 -51 -11 -66 -21 -62 -60 23 78 -119 311 -319 77 -66 153 -132 169 -148 16 -15 30 -26 32 -24 3 2 -7 46 -21 98 -14 52 -46 190 -70 307 -49 230 -67 290 -80 259 -4 -10 -1 -34 7 -55 18 -44 47 -192 38 -192 -4 0 -19 17 -35 38 -23 31 -26 33 -21 12 3 -14 6 -33 6 -42 0 -10 3 -17 8 -17 21 4 30 -4 44 -38 9 -21 19 -54 23 -73 3 -19 13 -65 22 -103 17 -71 11 -95 -14 -62 -8 11 -19 19 -25 17 -13 -3 -98 74 -120 109 -9 15 -14 31 -10 35 4 5 0 3 -9 -4 -14 -11 -23 -6 -61 30 -24 24 -64 59 -88 78 -81 65 -83 67 -76 120 55 413 405 745 870 825 180 31 429 14 600 -41 303 -97 525 -332 640 -675 37 -109 52 -137 40 -74 -21 117 -106 322 -153 372 -12 12 -21 25 -21 28 0 20 -179 225 -196 225 -4 0 -21 11 -38 24 -45 34 -180 100 -256 124 -157 52 -396 80 -550 66z"/> <path d="M2430 2110 c0 -5 5 -10 10 -10 6 0 10 -4 10 -10 0 -5 8 -18 18 -28 33 -36 48 -58 70 -102 12 -25 33 -58 47 -75 l25 -30 -19 51 c-11 29 -17 54 -15 57 7 7 -66 106 -100 135 -28 23 -46 28 -46 12z"/> <path d="M1511 2060 c0 -8 20 -105 45 -215 109 -479 144 -638 144 -657 0 -40 2 -38 266 312 190 251 230 308 221 316 -7 7 -97 -86 -97 -99 0 -14 -47 -67 -54 -60 -6 6 -10 -12 -7 -30 0 -4 -4 -6 -11 -5 -6 2 -14 -7 -17 -18 -3 -12 -22 -41 -41 -64 -19 -23 -41 -50 -48 -59 -12 -14 -12 -12 -7 14 22 101 25 369 4 348 -5 -5 -16 -101 -26 -213 l-17 -205 -70 -99 -70 -99 -29 141 -30 141 86 138 c125 203 148 243 137 243 -10 0 -90 -102 -90 -114 0 -5 -13 -25 -30 -46 -16 -21 -30 -41 -30 -46 0 -4 -12 -21 -27 -36 -15 -15 -28 -38 -30 -50 -4 -26 -20 -45 -29 -35 -7 6 -26 77 -69 247 -35 140 -73 269 -74 250z"/> <path d="M1412 1964 c-8 -32 -29 -124 -48 -204 -19 -80 -37 -155 -40 -168 -6 -30 -26 -23 -39 14 -5 16 -17 36 -26 44 -9 9 -30 38 -47 66 -62 107 -112 174 -127 174 -8 0 49 -100 139 -245 l84 -136 -24 -112 c-13 -62 -24 -122 -24 -134 0 -43 -17 -30 -81 60 -73 102 -68 86 -89 332 -12 149 -20 196 -30 190 -4 -2 -5 -16 -2 -30 2 -14 -1 -31 -7 -39 -6 -7 -9 -26 -6 -42 3 -16 7 -67 9 -114 2 -47 9 -98 15 -114 17 -43 -1 -53 -30 -18 -50 63 -60 78 -65 99 -4 13 -10 21 -14 18 -4 -3 -20 12 -36 33 -15 20 -30 39 -33 42 -4 3 -26 31 -50 63 -24 31 -50 57 -57 57 -12 0 -11 -5 3 -27 41 -66 475 -614 481 -608 2 2 11 39 18 82 8 43 44 226 80 407 36 180 64 338 62 349 -2 11 -9 -6 -16 -39z"/> <path d="M2619 1890 c43 -81 106 -258 117 -330 4 -25 11 -50 15 -56 19 -24 22 -207 4 -309 -68 -399 -326 -709 -719 -865 -105 -41 -283 -87 -371 -94 -38 -4 -90 -9 -115 -12 -100 -11 -460 41 -460 67 0 6 -4 8 -9 5 -12 -8 -71 14 -71 25 0 5 -11 9 -25 9 -14 0 -25 5 -25 11 0 5 -4 8 -8 5 -5 -3 -21 2 -36 10 -16 7 -35 14 -42 14 -8 0 -14 3 -14 8 0 4 -17 16 -37 27 -77 40 -190 120 -247 174 -39 36 -52 45 -39 26 31 -44 119 -125 188 -172 407 -275 983 -306 1438 -77 455 229 709 751 597 1231 -20 83 -120 306 -160 353 -12 14 -3 -9 19 -50z"/> <path d="M2206 1759 c-8 -30 -29 -135 -46 -234 -17 -99 -42 -229 -56 -290 -13 -60 -24 -114 -24 -119 0 -5 28 17 63 50 35 32 134 122 221 199 154 136 246 228 246 246 0 16 -27 -2 -76 -49 -80 -76 -174 -156 -195 -166 -10 -5 -19 -13 -19 -18 0 -5 -26 -33 -57 -64 -42 -40 -62 -53 -76 -48 -12 4 -17 2 -13 -4 3 -5 -2 -16 -11 -23 -15 -13 -16 -9 -10 36 13 114 30 192 49 223 11 17 24 30 28 27 12 -7 17 4 25 50 l6 40 -27 -42 c-40 -65 -52 -57 -35 22 5 22 12 61 15 88 4 26 11 59 16 73 6 15 7 32 1 42 -7 12 -13 3 -25 -39z"/> <path d="M1446 1547 c-15 -106 -35 -239 -45 -297 -10 -58 -17 -107 -14 -109 2 -3 27 3 56 12 47 15 57 15 101 2 63 -19 70 -19 61 3 -10 26 -115 529 -115 552 0 10 -4 21 -8 24 -5 3 -21 -81 -36 -187z m53 -64 c10 -40 31 -142 36 -177 2 -12 8 -37 14 -56 14 -44 5 -53 -58 -57 -39 -2 -50 1 -53 15 -6 24 34 312 44 312 4 0 12 -17 17 -37z"/> <path d="M1148 1645 c-3 -3 -2 -25 3 -48 4 -23 8 -63 9 -90 0 -34 7 -59 26 -87 15 -22 30 -40 34 -40 12 0 20 123 8 137 -5 7 -24 39 -42 73 -18 33 -35 58 -38 55z"/> <path d="M1806 1632 c-4 -10 -21 -44 -40 -74 -29 -50 -32 -61 -29 -114 7 -90 11 -94 42 -39 20 37 30 70 35 124 3 41 9 85 12 98 7 27 -12 32 -20 5z"/> <path d="M2526 1424 c-59 -98 -149 -242 -199 -319 -50 -77 -92 -141 -93 -143 -1 -2 -168 7 -372 19 l-369 23 -309 -27 c-170 -15 -330 -29 -355 -32 l-46 -5 -94 137 c-52 76 -143 214 -203 308 -59 93 -114 177 -122 185 -18 19 -18 1 2 -45 8 -20 10 -34 5 -30 -24 14 -8 -12 62 -102 39 -52 81 -111 92 -131 11 -20 23 -38 28 -40 4 -2 7 -8 7 -13 0 -8 63 -94 105 -141 17 -20 20 -32 6 -24 -5 3 -12 -1 -15 -9 -3 -10 1 -18 12 -22 25 -8 102 -95 102 -115 0 -16 -10 -18 -72 -18 -88 0 -84 -9 8 -16 38 -3 73 -9 77 -13 5 -5 10 -27 11 -49 2 -22 12 -52 22 -65 11 -14 24 -32 29 -41 9 -14 37 -16 204 -17 106 0 196 2 199 5 3 3 -53 6 -124 6 -71 0 -154 3 -184 6 -58 6 -102 22 -95 35 3 4 72 8 153 8 81 1 233 6 337 11 105 6 208 8 230 5 125 -15 614 -20 627 -7 6 6 16 37 22 69 8 37 17 59 26 60 8 1 38 5 65 10 l50 7 -54 6 c-30 3 -56 10 -58 17 -2 6 7 23 21 37 15 14 26 29 26 35 0 5 9 13 20 16 11 3 20 11 20 17 0 6 12 27 27 46 15 20 21 32 15 28 -7 -4 -12 -4 -12 1 0 7 67 111 80 123 3 3 10 14 17 25 65 109 122 195 152 231 6 7 7 15 4 18 -4 3 -2 6 4 6 5 0 9 10 8 23 -1 12 2 30 7 40 5 10 8 23 6 29 -3 7 -53 -69 -112 -168z m-692 -469 c142 -8 288 -15 323 -15 58 0 64 -2 59 -17 -4 -10 -14 -50 -23 -90 l-16 -73 -76 0 c-42 0 -177 5 -301 11 -292 13 -327 13 -570 0 -113 -5 -248 -12 -300 -13 l-95 -3 -17 65 c-9 36 -19 73 -23 83 -5 12 -2 17 9 17 31 0 420 31 551 44 71 7 150 11 175 9 25 -2 161 -10 304 -18z"/> <path d="M1448 907 c-26 -12 -48 -24 -48 -27 0 -3 23 -15 50 -27 l50 -22 50 22 c27 12 50 24 50 27 0 4 -77 40 -100 47 -3 0 -26 -9 -52 -20z"/> <path d="M1173 883 c-31 -21 -29 -29 8 -37 35 -7 91 22 67 34 -30 17 -54 18 -75 3z"/> <path d="M1757 886 l-29 -13 26 -16 c16 -11 35 -15 55 -11 37 8 39 17 9 38 -26 18 -24 18 -61 2z"/> <path d="M948 869 c-25 -14 -22 -26 9 -33 26 -7 83 10 83 24 0 18 -66 25 -92 9z"/> <path d="M1973 873 c-13 -2 -23 -8 -23 -12 0 -15 57 -32 83 -25 32 7 33 12 10 30 -18 14 -30 15 -70 7z"/> <path d="M885 1513 c4 -10 30 -108 57 -218 27 -110 52 -202 54 -204 2 -3 23 6 45 18 35 20 50 22 95 17 30 -3 54 -4 54 -1 0 3 -56 80 -125 170 -68 90 -134 179 -146 199 -21 37 -47 50 -34 19z m130 -213 c11 -17 23 -30 28 -30 4 0 7 -6 7 -14 0 -8 13 -25 29 -39 37 -31 33 -67 -8 -67 -35 0 -89 80 -98 145 -7 53 9 55 42 5z"/> <path d="M2055 1489 c-44 -68 -230 -312 -254 -333 -34 -30 -25 -37 42 -34 51 2 69 -2 100 -21 28 -17 38 -19 41 -9 3 7 21 83 41 168 20 85 43 176 51 203 22 66 13 77 -21 26z m-50 -183 c-5 -41 -51 -136 -74 -153 -15 -12 -48 -9 -63 6 -8 7 -1 18 57 90 17 21 39 50 50 64 27 36 36 34 30 -7z"/> <path d="M280 1493 c-6 -39 -4 -289 2 -305 5 -10 3 -18 -5 -21 -20 -7 27 -170 79 -274 51 -100 118 -191 174 -232 19 -14 30 -19 24 -11 -7 8 -35 46 -63 83 -135 180 -207 428 -198 685 2 50 0 92 -3 92 -4 0 -8 -8 -10 -17z"/> <path d="M2700 1370 c0 -199 -36 -356 -117 -515 -19 -38 -40 -77 -47 -85 -16 -22 -37 -60 -32 -60 5 0 74 93 93 125 47 77 103 227 96 253 -2 11 3 26 11 35 19 18 21 31 4 21 -8 -5 -9 -2 -4 12 13 35 20 289 8 310 -9 15 -11 -6 -12 -96z"/> <path d="M590 1306 c0 -12 202 -276 211 -276 4 0 11 5 14 10 3 6 18 10 32 10 24 0 21 5 -38 57 -35 32 -99 91 -141 132 -43 41 -78 71 -78 67z"/> <path d="M2319 1247 c-35 -34 -97 -93 -138 -130 -41 -37 -73 -68 -70 -70 2 -2 20 -7 40 -10 l37 -5 101 135 c56 74 100 137 98 140 -3 2 -33 -25 -68 -60z"/> <path d="M455 1238 c53 -81 85 -122 85 -111 0 6 -7 16 -15 23 -9 7 -14 19 -11 27 3 7 2 13 -2 13 -4 1 -23 23 -42 50 -47 66 -60 64 -15 -2z"/> <path d="M2510 1242 c-19 -26 -38 -50 -43 -53 -4 -3 -9 -15 -12 -27 -2 -12 -7 -28 -10 -35 -4 -6 3 -1 14 13 11 14 21 30 21 37 0 6 4 13 8 15 12 5 74 98 65 98 -4 0 -24 -22 -43 -48z"/> <path d="M2144 710 c-6 -6 -95 -13 -207 -17 -109 -3 -195 -8 -193 -10 2 -2 92 -4 200 -4 188 1 236 7 236 33 0 11 -24 10 -36 -2z"/> <path d="M1453 673 c20 -5 23 -19 5 -26 -27 -9 0 -16 30 -8 20 6 32 6 32 0 0 -5 20 -9 45 -9 25 0 45 5 45 10 0 9 -34 14 -92 13 -26 0 -22 15 5 20 12 2 -3 4 -33 4 -30 1 -47 -1 -37 -4z"/> <path d="M2198 655 c-3 -3 -134 -6 -292 -7 -254 -1 -316 -5 -273 -20 43 -15 376 -6 600 16 53 6 59 16 10 16 -22 0 -42 -2 -45 -5z"/> <path d="M858 636 c18 -11 523 -19 555 -10 48 15 -17 19 -284 19 -196 1 -283 -3 -271 -9z"/> <path d="M1150 289 c0 -10 80 -26 170 -34 41 -4 81 -8 88 -10 6 -3 12 0 12 5 0 6 -17 10 -37 10 -21 1 -82 9 -135 19 -54 10 -98 15 -98 10z"/> </g> </svg> 